<svg xmlns="http://www.w3.org/2000/svg" viewBox="0 0 32 32" width="32" height="32">
  <!-- Background -->
  <rect width="32" height="32" fill="#0f172a" rx="4"/>
  
  <!-- Plinko board triangle -->
  <polygon points="16,4 8,20 24,20" fill="#1e293b" stroke="#475569" stroke-width="1"/>
  
  <!-- Pins in triangle pattern -->
  <circle cx="16" cy="8" r="1" fill="#f1f5f9"/>
  <circle cx="14" cy="10" r="1" fill="#f1f5f9"/>
  <circle cx="18" cy="10" r="1" fill="#f1f5f9"/>
  <circle cx="12" cy="12" r="1" fill="#f1f5f9"/>
  <circle cx="16" cy="12" r="1" fill="#f1f5f9"/>
  <circle cx="20" cy="12" r="1" fill="#f1f5f9"/>
  <circle cx="10" cy="14" r="1" fill="#f1f5f9"/>
  <circle cx="14" cy="14" r="1" fill="#f1f5f9"/>
  <circle cx="18" cy="14" r="1" fill="#f1f5f9"/>
  <circle cx="22" cy="14" r="1" fill="#f1f5f9"/>
  
  <!-- Dropping ball -->
  <circle cx="16" cy="6" r="2" fill="#ef4444" stroke="#dc2626" stroke-width="0.5"/>
  
  <!-- Multiplier slots -->
  <rect x="6" y="22" width="2" height="6" fill="#dc2626" rx="1"/>
  <rect x="9" y="22" width="2" height="6" fill="#ea580c" rx="1"/>
  <rect x="12" y="22" width="2" height="6" fill="#ca8a04" rx="1"/>
  <rect x="15" y="22" width="2" height="6" fill="#ca8a04" rx="1"/>
  <rect x="18" y="22" width="2" height="6" fill="#ca8a04" rx="1"/>
  <rect x="21" y="22" width="2" height="6" fill="#ea580c" rx="1"/>
  <rect x="24" y="22" width="2" height="6" fill="#dc2626" rx="1"/>
  
  <!-- Glow effect on ball -->
  <circle cx="16" cy="6" r="3" fill="none" stroke="#ef4444" stroke-width="0.5" opacity="0.3"/>
</svg> 